<?xml version="1.0" encoding="UTF-8"?>
<!-- Generator: Adobe Illustrator 19.2.0, SVG Export Plug-In . SVG Version: 6.00 Build 0)  -->
<svg version="1.1" id="Layer_1" xmlns="http://www.w3.org/2000/svg" xmlns:xlink="http://www.w3.org/1999/xlink" x="0px" y="0px" viewBox="0 0 166 28" style="enable-background:new 0 0 166 28;" xml:space="preserve">
<style type="text/css">
	.st0{fill:#B91E00;}
	.st1{clip-path:url(#SVGID_2_);fill:#FFFFFF;}
</style>
<g>
	<rect x="0" y="0" class="st0" width="28.6" height="28"/>
	<rect x="34.3" y="0" class="st0" width="28.6" height="28"/>
	<rect x="68.7" y="0" class="st0" width="28.6" height="28"/>
	<rect x="103" y="0" class="st0" width="28.6" height="28"/>
	<rect x="137.4" y="0" class="st0" width="28.6" height="28"/>
	<g>
		<defs>
			<rect id="SVGID_1_" x="0" y="0" width="166" height="28"/>
		</defs>
		<clipPath id="SVGID_2_">
			<use xlink:href="#SVGID_1_" style="overflow:visible;"/>
		</clipPath>
		<path class="st1" d="M20.7,16.5v1.1c0,0.5-0.1,1-0.4,1.5c-0.3,0.4-1.3,1.5-1.8,1.8c-0.4,0.2-1,0.5-1.6,0.5h-5    c-0.6,0-1.2-0.2-1.6-0.5c-0.5-0.3-1.5-1.4-1.8-1.8c-0.3-0.5-0.4-1-0.4-1.5v-7.3c0-0.5,0.1-1.1,0.4-1.5c0.3-0.4,1.3-1.4,1.8-1.7    c0.4-0.2,1-0.5,1.6-0.5h5c0.6,0,1.2,0.2,1.6,0.5c0.5,0.3,1.5,1.4,1.8,1.7c0.3,0.5,0.4,1,0.4,1.5v1.1l-3,0v-1.1    c-0.2-0.3-0.6-0.8-0.9-0.9h-4.9c-0.2,0.1-0.6,0.5-0.9,0.9v7.3c0.3,0.4,0.7,0.8,0.9,0.9h4.9c0.2-0.1,0.6-0.6,0.9-0.9v-1.1H20.7z"/>
		<path class="st1" d="M157.6,19.2c-0.3,0.4-1.3,1.5-1.8,1.8c-0.4,0.2-1,0.5-1.6,0.5h-5c-0.6,0-1.2-0.2-1.6-0.5    c-0.5-0.3-1.5-1.4-1.8-1.8c-0.3-0.5-0.4-1-0.4-1.5v-7.3c0-0.5,0.1-1.1,0.4-1.5c0.3-0.4,1.3-1.4,1.8-1.7c0.4-0.2,1-0.5,1.6-0.5h5    c0.6,0,1.2,0.2,1.6,0.5c0.5,0.3,1.5,1.4,1.8,1.7c0.3,0.5,0.4,1,0.4,1.5v7.3C158,18.2,157.9,18.7,157.6,19.2z M155,10.4    c-0.2-0.3-0.6-0.8-0.9-0.9h-4.9c-0.2,0.1-0.6,0.5-0.9,0.9v7.3c0.3,0.4,0.7,0.8,0.9,0.9h4.9c0.2-0.1,0.6-0.6,0.9-0.9V10.4z"/>
		<path class="st1" d="M51.4,21.3l-3.7-5.6h-1.8v5.6h-3V6.7h7.2c0.6,0,1.4,0.2,1.9,0.6c0.3,0.2,1.1,1,1.3,1.3    c0.3,0.5,0.5,1.1,0.5,1.6v2.1c0,0.6-0.1,1.1-0.5,1.6c-0.2,0.3-0.9,1.1-1.3,1.3c-0.5,0.3-0.7,0.3-0.8,0.4c0,0,0,0-0.1,0    c1.2,1.8,2.6,3.9,3.8,5.7H51.4z M50.8,10.1c-0.1-0.2-0.4-0.5-0.6-0.6h-4.2v3.3h4.2c0.1,0,0.5-0.3,0.6-0.6V10.1z"/>
		<path class="st1" d="M86.6,21.3l-1-2.8h-5.2c-0.3,0.9-0.7,1.9-1,2.8h-3.2l5.2-14.6h3.4l5.1,14.6H86.6z M83,10.6    c-0.5,1.6-1.1,3.5-1.7,5h3.4L83,10.6z"/>
		<path class="st1" d="M113.8,21.3h-3V6.7h3.3l3.3,6.6c1.1-2.2,2.2-4.4,3.3-6.6h3.3v14.6h-3l0-9.1l-0.2,0.7    c-0.8,1.6-1.6,3.3-2.4,4.9h-2l-2.4-4.9h0l-0.2-0.7L113.8,21.3z"/>
	</g>
</g>
</svg>