<svg id="Layer_2" data-name="Layer 2" xmlns="http://www.w3.org/2000/svg" viewBox="0 0 804.24 244.56"><defs><style>.cls-1{fill:#fff;}.cls-2{fill:#3ab54b;}</style></defs><title>emexlight</title><polygon class="cls-1" points="184.25 44.2 184.25 0 44.2 0 0 0 0 44.2 0 70.03 0 114.23 0 140.05 0 184.25 44.2 184.25 184.25 184.25 184.25 140.05 44.2 140.05 44.2 114.23 184.25 114.23 184.25 70.03 44.2 70.03 44.2 44.2 184.25 44.2"/><polygon class="cls-1" points="597.66 44.2 597.66 0 457.61 0 413.4 0 413.4 44.2 413.4 70.03 413.4 114.23 413.4 140.05 413.4 184.25 457.61 184.25 597.66 184.25 597.66 140.05 457.61 140.05 457.61 114.23 597.66 114.23 597.66 70.03 457.61 70.03 457.61 44.2 597.66 44.2"/><polygon class="cls-1" points="346.75 0 320.96 0 276.76 0 250.9 0 206.7 0 206.7 44.2 206.7 184.25 250.9 184.25 250.9 44.2 276.76 44.2 276.76 184.25 320.96 184.25 320.96 44.2 346.75 44.2 346.75 184.25 390.96 184.25 390.96 44.2 390.96 0 346.75 0"/><path class="cls-1" d="M647.66,0l64.43,92.13-64.21,92.12H620l64.44-92.12L620,0ZM759.88,63.39,804.24,0H749.93L732.42,24.69Zm-.22,57.73-27.24,39.13,17.29,24h54.53Z"/><polygon class="cls-2" points="654.15 0 709.07 0 773.5 92.13 709.07 184.25 654.15 184.25 718.58 92.13 654.15 0"/><path class="cls-1" d="M593,244.58a23.44,23.44,0,0,1-15.4-5.24c-11.67-9.67-7-25.07-6.36-27a22.52,22.52,0,0,1,10.77-13,23.28,23.28,0,0,1,10.8-2.49,40.19,40.19,0,0,1,13.9,2.82l1.87.7-2.45,6.55-1.87-.7a33.41,33.41,0,0,0-11.44-2.37,16.39,16.39,0,0,0-7.59,1.71,15.56,15.56,0,0,0-7.26,8.75l-.05.17c-.06.19-4.15,12.67,4.14,19.54a16.67,16.67,0,0,0,11,3.6,29.75,29.75,0,0,0,8.57-1.37V225.35H589.2v-7h19.37V240.9l-2.08.93A36.15,36.15,0,0,1,593,244.58Zm-183.64-.67V198h7v38.93h20.12v7Zm89.24-.12V198h7v45.81Zm284.78-.16v-39H769.5v-7h34.74v7H790.37v39Zm-81.75,0V223.08H680.89v20.55h-7V198h7v18.12h20.73V198h7v45.67Z"/></svg>