<svg xmlns="http://www.w3.org/2000/svg" viewBox="0 0 49.81 64">
  <title>Asset 30</title>
  <g id="Layer_2" data-name="Layer 2">
    <g id="Layer_45" data-name="Layer 45">
      <path style="fill: #fff" d="M39.4,53.44V48.49h6.79V45.31a8.15,8.15,0,0,0-6.69-8V0H0V55.14L9,64H49.81ZM13.73,4.61A4.59,4.59,0,1,1,9.14,9.19,4.59,4.59,0,0,1,13.73,4.61Zm.88,57.28L6.23,54.28h4.7a6.87,6.87,0,0,1,5,2l5.66,5.65Zm9-18.62L22.4,32.84l-9,18.58A2.71,2.71,0,0,1,10.93,53H6.23L17.28,30.39l-3.55-8.5L9.14,27.45l-6.86.16V22.73h4.5l5.4-6.7a5.18,5.18,0,0,1,4-1.92h12A4.28,4.28,0,0,1,32,16.47l3.35,6.64A2.09,2.09,0,0,1,34.27,26a2,2,0,0,1-.8.16A2.07,2.07,0,0,1,31.62,25l-3.17-6-4.94.06L27.4,28.5l1.05,11.9H38a4.11,4.11,0,0,1,4,3l.5,1.82H25.76A2.22,2.22,0,0,1,23.56,43.27Z"/>
    </g>
  </g>
</svg>