<svg xmlns="http://www.w3.org/2000/svg" viewBox="0 0 64 64"><title>active</title><g id="active"><path d="M37.48,31.54a2.73,2.73,0,0,1,0,3.87l-5.22,5.21V50.1a2.73,2.73,0,1,1-5.46,0V38.35h0l6.81-6.81A2.73,2.73,0,0,1,37.48,31.54ZM58.41,24l-.86.86a1.69,1.69,0,0,1-2.39,0l-1.4-1.39-3.42,3.42A24.38,24.38,0,1,1,27.11,15.26V9.65A1.69,1.69,0,0,1,28.8,8h1.34a1.69,1.69,0,0,1,1.69,1.69v5.61A24.35,24.35,0,0,1,47.49,23.1l2.93-2.94-1.59-1.6a1.67,1.67,0,0,1,0-2.39l.86-.86a1.69,1.69,0,0,1,2.39,0l6.33,6.33A1.69,1.69,0,0,1,58.41,24ZM48.7,39.52A19.24,19.24,0,1,0,29.47,58.75,19.25,19.25,0,0,0,48.7,39.52ZM33.08.11H25.44a9.24,9.24,0,0,0-9.23,9.23v2.32a2.57,2.57,0,1,0,5.13,0V9.34a4.1,4.1,0,0,1,4.1-4.09h7.64a4.1,4.1,0,0,1,4.1,4.09v2.32a2.57,2.57,0,1,0,5.14,0V9.34A9.25,9.25,0,0,0,33.08.11Z"/></g></svg>