<svg xmlns="http://www.w3.org/2000/svg" viewBox="0 0 64 64"><title>air-pressure</title><g id="air-pressure"><path d="M32,.11A31.89,31.89,0,1,0,63.89,32,31.92,31.92,0,0,0,32,.11Zm0,3.65a28.12,28.12,0,0,1,18.63,7L46,15.38a21.75,21.75,0,0,0-28.08,0L13.37,10.8A28.12,28.12,0,0,1,32,3.76ZM3.76,32a28.12,28.12,0,0,1,7-18.63L15.38,18a21.75,21.75,0,0,0,0,28.08L10.8,50.63A28.12,28.12,0,0,1,3.76,32ZM13,53.09l7.27-7.27A18.11,18.11,0,1,1,50,29.79c-5.43-1.69-15.23-4.61-17.84-4.61a6.82,6.82,0,1,0,0,13.64c2.61,0,12.42-3,17.86-4.66A18.17,18.17,0,0,1,43.7,45.82L51,53.09A26.86,26.86,0,0,1,13,53.09ZM53.2,50.63,48.62,46a21.75,21.75,0,0,0,0-28.08l4.58-4.59a28.17,28.17,0,0,1,0,37.26ZM37.82,46.15A1.83,1.83,0,0,1,36,48H28a1.83,1.83,0,0,1,0-3.65h8A1.82,1.82,0,0,1,37.82,46.15Z"/></g></svg>