<svg xmlns="http://www.w3.org/2000/svg" viewBox="0 0 64 64"><title>alarm-active</title><g id="alert-active"><path id="_Составной_контур_" data-name="&lt;Составной контур&gt;" d="M20.79,11.29,17.17,7.67A26.39,26.39,0,0,0,6.73,27.57H11.8A21.42,21.42,0,0,1,20.79,11.29ZM52.2,27.57h5.07A26.56,26.56,0,0,0,46.83,7.67l-3.6,3.62a21.59,21.59,0,0,1,9,16.28Zm-5,1.26c0-7.78-4.15-14.29-11.4-16V11.09a3.81,3.81,0,0,0-7.61,0v1.73c-7.28,1.72-11.41,8.21-11.41,16V41.51l-5.07,5.07v2.53H52.28V46.58l-5.07-5.07ZM32,56.71a5,5,0,0,0,1-.1,5.17,5.17,0,0,0,3.65-3,5.36,5.36,0,0,0,.38-2H26.9A5.11,5.11,0,0,0,32,56.71Z"/></g></svg>