<svg xmlns="http://www.w3.org/2000/svg" viewBox="0 0 64 64"><title>calories</title><g id="calories"><path d="M24.61,63.62,20.68,62c-4.86-2-13.27-7-14.87-17.09C4.38,35.85,12.5,28.56,19,22.71l1.46-1.32C27.41,15.09,22.36,4.1,22.31,4L20.61.38l3.89.88c1.18.27,28.76,6.74,33.1,27S46.07,58,45.91,58.07l-4,2.29,1.12-4.45c2-8,1.52-14.15-1.44-18.29a12.39,12.39,0,0,0-5.11-4.13c2.08,5.59,3,12.74-2.44,15.65a6.61,6.61,0,0,1-5.54.48,11.67,11.67,0,0,1-5.38-4.84c-2.54,6.31.12,14.7.15,14.79ZM27.16,6.08c1.25,4.63,2.13,12.58-4.06,18.2l-1.47,1.33c-5.82,5.22-13.07,11.73-12,18.67,1,6.13,5.16,10,8.94,12.27-.76-4.55-1.07-11.82,3.11-17L23.81,37,25,40.06c.55,1.35,2.47,5,4.81,5.9a2.74,2.74,0,0,0,2.36-.25c4.24-2.28.68-11.32-.9-14.3l-1.68-3.16,3.57.3a17.12,17.12,0,0,1,11.59,6.8c2.91,4.08,3.94,9.51,3.07,16.18,3.71-3.79,8.36-11.07,5.92-22.45C50.82,15.25,34.46,8.46,27.16,6.08Z"/></g></svg>