<svg xmlns="http://www.w3.org/2000/svg" viewBox="0 0 64 64"><title>co2</title><g id="co2"><path d="M36.7,13.83A11.7,11.7,0,0,1,48.48,25.41c0,.31,0,.63,0,1l-.29,3.39,3.36.55a10.15,10.15,0,0,1,8.78,9.83c0,5.51-4.76,10-10.61,10h-33v0l-3.69,0h-.1c-5,0-9.13-4.4-9.13-9.77a9.67,9.67,0,0,1,6.88-9.46l2.45-.67.24-2.53a7.56,7.56,0,0,1,7.56-6.87,7.86,7.86,0,0,1,1.77.22l2.59.62,1.39-2.27a11.76,11.76,0,0,1,10.1-5.61m0-3.67a15.47,15.47,0,0,0-13.22,7.36,11.41,11.41,0,0,0-2.63-.32A11.28,11.28,0,0,0,9.63,27.4a13.35,13.35,0,0,0-9.58,13c0,7.42,5.75,13.44,12.84,13.44H49.67C57.56,53.84,64,47.72,64,40.18A13.85,13.85,0,0,0,52.09,26.73c0-.44.06-.87.06-1.32A15.35,15.35,0,0,0,36.7,10.16ZM26.41,38.69A3.91,3.91,0,0,1,25,41.54a5.11,5.11,0,0,1-3.36,1A4.58,4.58,0,0,1,18,41.13a5.71,5.71,0,0,1-1.31-4v-.69a6.5,6.5,0,0,1,.6-2.86,4.35,4.35,0,0,1,1.73-1.89,5,5,0,0,1,2.6-.66,5,5,0,0,1,3.31,1A4.17,4.17,0,0,1,26.42,35H24a2.29,2.29,0,0,0-.64-1.58,2.46,2.46,0,0,0-1.68-.49,2.12,2.12,0,0,0-1.83.83,4.47,4.47,0,0,0-.62,2.57v.85a4.75,4.75,0,0,0,.58,2.66,2.08,2.08,0,0,0,1.84.84,2.49,2.49,0,0,0,1.69-.49A2.13,2.13,0,0,0,24,38.69Zm11.36-1.62a6.48,6.48,0,0,1-.62,2.9,4.5,4.5,0,0,1-1.78,1.93,5,5,0,0,1-2.64.68,5.13,5.13,0,0,1-2.64-.67A4.5,4.5,0,0,1,28.3,40a6.25,6.25,0,0,1-.65-2.86v-.56a6.47,6.47,0,0,1,.64-2.92,4.53,4.53,0,0,1,1.78-1.94,5.54,5.54,0,0,1,5.28,0,4.53,4.53,0,0,1,1.78,1.94,6.3,6.3,0,0,1,.64,2.91Zm-2.48-.51a4.58,4.58,0,0,0-.67-2.69,2.44,2.44,0,0,0-3.81,0,4.47,4.47,0,0,0-.68,2.66v.55a4.66,4.66,0,0,0,.67,2.67,2.22,2.22,0,0,0,1.93.94,2.19,2.19,0,0,0,1.89-.91,4.61,4.61,0,0,0,.67-2.67Zm12.14,5.87H39.29V40.9L43.13,37A8.79,8.79,0,0,0,44.3,35.6a2.24,2.24,0,0,0,.38-1.16,1.66,1.66,0,0,0-.4-1.18,1.51,1.51,0,0,0-1.14-.42,1.59,1.59,0,0,0-1.26.52,2,2,0,0,0-.46,1.37H39.05a3.59,3.59,0,0,1,.52-1.88A3.65,3.65,0,0,1,41,31.52,4.65,4.65,0,0,1,43.18,31a4.42,4.42,0,0,1,2.85.83,2.88,2.88,0,0,1,1,2.36,3.64,3.64,0,0,1-.46,1.69,9.69,9.69,0,0,1-1.57,2l-2.7,2.69h5.11Z"/></g></svg>