<svg xmlns="http://www.w3.org/2000/svg" viewBox="0 0 64 64"><defs><style>.cls-1{fill-rule:evenodd;}</style></defs><title>elevation</title><g id="Layer_42" data-name="Layer 42"><path class="cls-1" d="M45.22,28.06a2.63,2.63,0,1,0,0-5.26H38.1V14.91h7.12a2.63,2.63,0,1,0,0-5.26H38.1v-5A4.64,4.64,0,0,0,33.47,0H20.79a4.64,4.64,0,0,0-4.64,4.63V59.37A4.64,4.64,0,0,0,20.79,64H33.47a4.64,4.64,0,0,0,4.63-4.63v-5h7.12a2.63,2.63,0,1,0,0-5.26H38.1V41.2h7.12a2.63,2.63,0,0,0,0-5.26H38.1V28.06Zm-11.9,7.88H29.43a2.63,2.63,0,1,0,0,5.26h3.89v7.89H29.43a2.63,2.63,0,0,0,0,5.26h3.89V56.9a2.75,2.75,0,0,1-2.75,2.75H23.68a2.75,2.75,0,0,1-2.75-2.75V7.1a2.75,2.75,0,0,1,2.75-2.75h6.89A2.75,2.75,0,0,1,33.32,7.1V9.65H29.43a2.63,2.63,0,1,0,0,5.26h3.89V22.8H29.43a2.63,2.63,0,0,0,0,5.26h3.89Z"/></g></svg>