<svg xmlns="http://www.w3.org/2000/svg" viewBox="0 0 64 64"><defs><style>.cls-1{fill-rule:evenodd;}</style></defs><title>gateway</title><g id="Layer_41" data-name="Layer 41"><path class="cls-1" d="M5.25,16.77h53.5a5.14,5.14,0,0,1,5.13,5.14V42.09a5.14,5.14,0,0,1-5.13,5.14H5.25A5.14,5.14,0,0,1,.12,42.09V21.91A5.14,5.14,0,0,1,5.25,16.77Zm11.3,31.59,3.53,3.2a7.81,7.81,0,0,0,5.37,2.17H38.56a7.77,7.77,0,0,0,5.36-2.17l3.54-3.2ZM33.66,52H30.35a1.25,1.25,0,0,1-1.25-1.14,1.26,1.26,0,0,1,1.25-1.25h3.31a1.26,1.26,0,0,1,1.25,1.25A1.25,1.25,0,0,1,33.66,52ZM43.92,12.43a7.3,7.3,0,0,0-5.36-2.16H25.45a7.34,7.34,0,0,0-5.37,2.16l-3.53,3.2H47.46ZM33.66,14.37H30.35a1.26,1.26,0,0,1-1.25-1.25A1.17,1.17,0,0,1,30.35,12h3.31a1.17,1.17,0,0,1,1.25,1.14A1.26,1.26,0,0,1,33.66,14.37Z"/></g></svg>