<svg xmlns="http://www.w3.org/2000/svg" viewBox="0 0 64 64"><title>heading</title><g id="heading"><path d="M32,.05A32,32,0,1,0,64,32,32,32,0,0,0,32,.05Zm2.54,59.44v-2a2.54,2.54,0,1,0-5.08,0v2a27.65,27.65,0,0,1-25-25h2a2.54,2.54,0,1,0,0-5.08h-2a27.65,27.65,0,0,1,25-25v2a2.54,2.54,0,1,0,5.08,0v-2a27.65,27.65,0,0,1,25,25h-2a2.54,2.54,0,1,0,0,5.08h2A27.65,27.65,0,0,1,34.54,59.49ZM32,36a4,4,0,1,1,4-4A4,4,0,0,1,32,36ZM47.27,14.59l-15,5.9H32a11.45,11.45,0,0,0-8,3.28l-.2.08-.09.2a11.5,11.5,0,0,0-3.18,8v.25l-5.8,14.92a1.6,1.6,0,0,0,2,1.95l14.7-5.63.66,0A11.51,11.51,0,0,0,43.51,32q0-.36,0-.72l5.74-14.74A1.6,1.6,0,0,0,47.27,14.59ZM24,32a8,8,0,1,1,8,8A8,8,0,0,1,24,32Z"/></g></svg>