<svg xmlns="http://www.w3.org/2000/svg" viewBox="0 0 64 64"><title>humidity</title><g id="humidity"><path d="M40.15.11S25.1,16.28,19.6,31.48A5.64,5.64,0,0,1,16.82,30a8.52,8.52,0,0,0-5.89-2.3A8.51,8.51,0,0,0,5.05,30a5.21,5.21,0,0,1-3.73,1.54V35a8.54,8.54,0,0,0,5.88-2.3,5.28,5.28,0,0,1,7.47,0,9.21,9.21,0,0,0,3.89,2.09,28.08,28.08,0,0,0-.83,4.46c-.3-.21-.59-.44-.91-.69a8.52,8.52,0,0,0-5.89-2.3,8.51,8.51,0,0,0-5.88,2.3,5.17,5.17,0,0,1-3.73,1.54v3.45a8.54,8.54,0,0,0,5.88-2.3,5.28,5.28,0,0,1,7.47,0,10,10,0,0,0,3,1.84,22.22,22.22,0,0,0,1,5.25,7.29,7.29,0,0,1-1.91-1.23,8.52,8.52,0,0,0-5.89-2.3,8.51,8.51,0,0,0-5.88,2.3,5.17,5.17,0,0,1-3.73,1.54v3.45a8.54,8.54,0,0,0,5.88-2.3,5.28,5.28,0,0,1,7.47,0,8.5,8.5,0,0,0,5.67,2.29A22.53,22.53,0,0,0,62.68,41.35C62.68,25.34,40.15.11,40.15.11Zm0,59.19A18,18,0,0,1,25,50.89a15.6,15.6,0,0,0,1.47-1.08,5.26,5.26,0,0,1,7.46,0,8.56,8.56,0,0,0,5.89,2.3V48.66a5.17,5.17,0,0,1-3.73-1.54,8.68,8.68,0,0,0-11.77,0c-.31.24-.59.47-.87.67a17.6,17.6,0,0,1-1.08-4.4,9,9,0,0,0,4.1-2.13,5.26,5.26,0,0,1,7.46,0,8.56,8.56,0,0,0,5.89,2.3V40.11a5.17,5.17,0,0,1-3.73-1.54,8.68,8.68,0,0,0-11.77,0,7.15,7.15,0,0,1-2,1.26,25.33,25.33,0,0,1,1.12-5.29,10.17,10.17,0,0,0,3-1.83,5.26,5.26,0,0,1,7.46,0A8.56,8.56,0,0,0,39.78,35V31.56A5.21,5.21,0,0,1,36.05,30a8.54,8.54,0,0,0-5.89-2.3A8,8,0,0,0,25.59,29c3.77-8.08,10-16.45,14.5-21.89,7,8.65,18,24.34,18,34.2A18,18,0,0,1,40.15,59.3Z"/></g></svg>