<svg xmlns="http://www.w3.org/2000/svg" viewBox="0 0 64 64"><defs><style>.cls-1{fill-rule:evenodd;}</style></defs><title>noise</title><g id="Layer_44" data-name="Layer 44"><path class="cls-1" d="M44,32.19l-.2.2a1.47,1.47,0,0,1-2.09,0L31.61,22.32a1.47,1.47,0,0,1,0-2.09l.2-.2a1.47,1.47,0,0,1,2.09,0L44,30.1A1.47,1.47,0,0,1,44,32.19Zm11.91-5.55L37.36,8.12a1.47,1.47,0,0,0-2.09,0l-.2.19a1.49,1.49,0,0,0,0,2.09L53.59,28.92a1.47,1.47,0,0,0,2.09,0l.2-.19A1.47,1.47,0,0,0,55.88,26.64Zm-6.42,1.3-13.4-13.4a1.47,1.47,0,0,0-2.09,0l-.2.19a1.48,1.48,0,0,0,0,2.1l13.4,13.4a1.49,1.49,0,0,0,2.09,0l.2-.2A1.47,1.47,0,0,0,49.46,27.94Zm13.46-2L38.05,1.08a1.47,1.47,0,0,0-2.09,0l-.2.2a1.47,1.47,0,0,0,0,2.09L60.63,28.24a1.47,1.47,0,0,0,2.09,0l.2-.2A1.47,1.47,0,0,0,62.92,26ZM38.34,32.26l-5.85-5.85a1.49,1.49,0,0,0-2.09,0l-.2.2a1.49,1.49,0,0,0,0,2.09l5.86,5.85a1.47,1.47,0,0,0,2.09,0l.19-.19A1.48,1.48,0,0,0,38.34,32.26Zm7,18.63a3.8,3.8,0,0,1-3.07,2.59L23.8,56.26l-5,5a7.25,7.25,0,0,1-5.13,2.13h0a7.24,7.24,0,0,1-5.12-2.12L2.76,55.41a7.26,7.26,0,0,1,0-10.25l5-5,2.78-18.44A3.84,3.84,0,0,1,17,19.61L44.39,47A3.78,3.78,0,0,1,45.32,50.89Zm-25.63,3.9L9.21,44.31,5.56,48a3.29,3.29,0,0,0,0,4.66l5.83,5.83a3.26,3.26,0,0,0,2.32,1h0a3.33,3.33,0,0,0,2.33-1Zm21.74-5.18-27-27L11.59,41.1,22.9,52.41Z"/></g></svg>