<svg xmlns="http://www.w3.org/2000/svg" viewBox="0 0 64 64"><title>profile</title><g id="user"><path d="M46.68,17.43a.32.32,0,0,1-.07-.19c0-6-1.71-16.51-15-16.51S16.74,11.42,16.9,17.55a1.57,1.57,0,0,0-1.15,1.59c0,2-.31,4.16,1.29,6.75a2.19,2.19,0,0,0,1.32.92C20.41,34,25.58,39.16,31.65,39.16s11.21-5.1,13.26-12.29a3.59,3.59,0,0,0,1.72-1.65,14.45,14.45,0,0,0,.95-5.9A2.14,2.14,0,0,0,46.68,17.43Zm-2.32,7.26a4.59,4.59,0,0,1-.82.95c-.4.28-.58-.2-.58-.2s-.14-.13-.21.1S41,31,37.81,33.77s-5.58,2.75-5.58,2.75S29.64,37,26,34.24s-5.51-8.7-5.51-8.7,0-.18-.18-.09a.27.27,0,0,0-.12.25.85.85,0,0,1-.34,0,3.75,3.75,0,0,1-1.44-2.6,9.47,9.47,0,0,1,0-3c.13-.33.37-.59.54-.61s.33-.06.43.07.12.27.27.16.84-5.69,5-5.93a4.38,4.38,0,0,1,1.86.16,8.89,8.89,0,0,0,2.35.58,15,15,0,0,0,3.07.18c.47-.1,2.52-.13,3.2-.6s4.42-.29,5.84,1.52l-.42-1.65s1.73.1,3.12,5.6c0,0,0,.25.21.14s.31-.25.47-.16.76.31.77,2.12A6.44,6.44,0,0,1,44.36,24.69ZM61,56.41s-1.18,3-8.16,4.91c-5.59,1.56-14.64,1.88-19.33,1.93h0s-.56,0-1.52,0-1.52,0-1.52,0h0c-4.69-.08-13.74-.44-19.32-2-7-2-8.14-5-8.14-5A7.17,7.17,0,0,1,2.72,52s2.52-10.1,9-11.74a22.42,22.42,0,0,1,4.8-.85A19.62,19.62,0,0,0,21,39a3.61,3.61,0,0,0,.49,1,4.54,4.54,0,0,0,1.8,1.52,18.15,18.15,0,0,0,4.53,1.59,38.74,38.74,0,0,0,3.95.3h.52c.75,0,2.92-.12,4-.29a18.57,18.57,0,0,0,4.53-1.57A4.47,4.47,0,0,0,42.59,40a3.47,3.47,0,0,0,.5-1,19.89,19.89,0,0,0,4.47.45,22.29,22.29,0,0,1,4.8.88C58.81,42,61.29,52.1,61.29,52.1A7.16,7.16,0,0,1,61,56.41Z"/></g></svg>