<svg xmlns="http://www.w3.org/2000/svg" viewBox="0 0 64 64"><title>settings</title><g id="gear"><path d="M40.55,32A8.56,8.56,0,1,1,32,23.44,8.55,8.55,0,0,1,40.55,32Zm18,.06a26,26,0,0,1-1.12,7.53l4.67,4a25.62,25.62,0,0,1-5.58,9.17l-.09.09-5.7-2a26,26,0,0,1-6.11,4.54l.49,6.11A25.45,25.45,0,0,1,34.67,64h-.11l-2.62-5.46a26.07,26.07,0,0,1-7.54-1.12l-3.95,4.67a25.64,25.64,0,0,1-9.19-5.59l-.08-.07,2-5.71a26.26,26.26,0,0,1-4.56-6.11l-6.09.49A25.79,25.79,0,0,1,0,34.68v-.13l5.45-2.61A27.19,27.19,0,0,1,6.57,24.4l-4.67-4a25.73,25.73,0,0,1,5.59-9.17l.08-.09,5.7,2a26.6,26.6,0,0,1,6.12-4.56l-.5-6.09A25.59,25.59,0,0,1,29.33,0h.12l2.6,5.44A26.08,26.08,0,0,1,39.6,6.57l4-4.67a25.47,25.47,0,0,1,9.17,5.59l.09.08-2,5.71a26.73,26.73,0,0,1,4.55,6.1l6.1-.49A25.87,25.87,0,0,1,64,29.33v.12ZM49.37,32A17.37,17.37,0,1,0,32,49.36,17.37,17.37,0,0,0,49.37,32Z"/></g></svg>