<svg xmlns="http://www.w3.org/2000/svg" viewBox="0 0 64 64"><title>sites-building</title><g id="Слой_39" data-name="Слой 39"><path d="M63.45,52.63v4.21L37.82,60.22.55,56.84V52.63H12.1l0-4.57-9,.36V44.34l9-1.2,0-3.94-9,1.47V36.4l9-1.82v-5l-9,3.37v-4.5l9.07-3.87,0-3.95L3.13,25.16V20.79L12.24,16l7.07,1.64,0,5.14,18.51-6.93,22.69,12V32L37.82,22,19.36,27.7l0,4.87L37.8,27.93l22.74,8.19V40.3L37.82,33.8,19.41,37.49l0,4.81L37.87,40l22.67,4.58v3.84L37.88,46,19.46,47l0,5.61ZM60.54,23.91V19.82l-22.66-16L19.31,13v4.7l18.39-7.4Z"/></g></svg>