<svg xmlns="http://www.w3.org/2000/svg" viewBox="0 0 64 64"><title>sites-alert</title><g id="Слой_40" data-name="Слой 40"><path d="M55.25,44.27c-2.61-2.89-4.36-7.51-4.5-19.35A17.92,17.92,0,0,0,39.43,8.42c0-.24,0-.47,0-.7a7.47,7.47,0,1,0-14.94,0c0,.23,0,.46,0,.69A18,18,0,0,0,13.25,24.94C13.11,37,11.41,41.4,8.7,44.27c-2.49.74-5,2.37-5,5.49,0,4.4,5,5.86,8,6h9.86a10.82,10.82,0,0,0,20.87,0h10c2.93-.17,7.89-1.63,7.89-6C60.27,46.63,57.78,45,55.25,44.27ZM32,3.15a4.55,4.55,0,0,1,4.54,4.27A18.41,18.41,0,0,0,32,6.81h0a18.41,18.41,0,0,0-4.52.61A4.55,4.55,0,0,1,32,3.15ZM16.15,25C16.46,13.46,27,9.72,32,9.71S47.54,13.46,47.85,25C48,34.06,49,39.77,51.32,43.76H12.7C15.06,39.85,16,34.25,16.15,25ZM32,60.85a8,8,0,0,1-7.39-5.06H39.39A8,8,0,0,1,32,60.85Zm20.3-8H11.79s-5.16-.4-5.16-3.13,5.1-3.1,5.07-3.1H52.22c.05,0,5.15.37,5.15,3.1S52.26,52.89,52.3,52.89ZM20.92,27.66a.87.87,0,0,1-.87-.87c0-12.83,10.61-13.33,10.72-13.34a.87.87,0,0,1,.06,1.74h0c-.37,0-9,.48-9,11.6A.87.87,0,0,1,20.92,27.66Zm.85,3.13a.86.86,0,1,1-.86-.86A.85.85,0,0,1,21.77,30.79Z"/></g></svg>