<svg xmlns="http://www.w3.org/2000/svg" viewBox="0 0 64 64"><title>sites</title><g id="location"><path d="M31.66,0A21.33,21.33,0,0,0,10.32,21.33c0,14.45,21.34,30.28,21.34,30.28S53,35.78,53,21.33A21.33,21.33,0,0,0,31.66,0Zm0,27.53a8.26,8.26,0,1,1,8.25-8.26A8.26,8.26,0,0,1,31.66,27.53ZM50,41.42c-1.14,1.45-2.33,2.83-3.51,4.12,7.09,1.59,11.31,4.15,11.31,6.07,0,3-10.3,7.57-25.81,7.57S6.19,54.63,6.19,51.61c0-1.88,4-4.35,10.75-5.94-1.19-1.28-2.37-2.65-3.51-4.09-7.09,2-12,5.42-12,10C1.38,59.75,16.78,64,32,64s30.62-4.25,30.62-12.39C62.62,46.87,57.39,43.45,50,41.42Z"/></g></svg>