<svg xmlns="http://www.w3.org/2000/svg" viewBox="0 0 63.3 62.26"><title>spotlight</title><g id="Layer_47" data-name="Layer 47"><path d="M31.65,40.78A20.24,20.24,0,0,0,51.49,24.66H55l-.12-3a23.29,23.29,0,0,0-46.54,0l-.12,3h3.55A20.23,20.23,0,0,0,31.65,40.78Zm0-5.82A14.45,14.45,0,0,1,18,25.31H45.28A14.42,14.42,0,0,1,31.65,35Zm0-29.88A17.42,17.42,0,0,1,48.72,18.84H14.58A17.41,17.41,0,0,1,31.65,5.08ZM16.94,42.8,10.32,54.68a2.92,2.92,0,0,1-2.55,1.49,2.92,2.92,0,0,1-2.54-4.33L11.85,40a2.91,2.91,0,0,1,5.09,2.83Zm40,13a2.91,2.91,0,0,1-4-1.12L46.36,42.8A2.91,2.91,0,0,1,51.45,40l6.61,11.87A2.91,2.91,0,0,1,56.94,55.8ZM34.56,46.49v13.6a2.91,2.91,0,1,1-5.82,0V46.49a2.91,2.91,0,1,1,5.82,0Z"/></g></svg>