<svg xmlns="http://www.w3.org/2000/svg" viewBox="0 0 64 64"><title>steps</title><g id="steps"><path id="steps-2" data-name="steps" d="M56.94,39.75,40,36.63,40,35a75.83,75.83,0,0,0-.42-10.09c-.22-2.6-.44-5.06-.45-7.48A20,20,0,0,1,42,6.19C44.2,2.73,48.29-.61,53.09.4h.07A10.64,10.64,0,0,1,60.26,6c5.45,10.49-2.44,31.39-2.78,32.27ZM43.78,33.58l10.77,2C56.18,30.78,60.94,15.34,57,7.74A7,7,0,0,0,52.3,4c-3-.59-5.66,1.77-7.21,4.18s-2.24,5.22-2.23,9.26c0,2.26.22,4.65.44,7.17C43.55,27.54,43.81,30.56,43.78,33.58Zm3.18,24a5.53,5.53,0,0,1-.69,0c-6.83-.88-7.56-9.81-6.91-15l.22-1.82,17,2.06-.42,2C55.88,46.17,53.26,57.61,47,57.61Zm-4.05-12.7c-.07,3,.28,8.54,3.83,9,2,.27,4.16-3.95,5.31-7.88Zm-33.48.94C9,45-1.35,25.2,2.81,14.14A10.63,10.63,0,0,1,9.18,7.7l.07,0C13.9,6.11,18.35,8.93,21,12.09a20,20,0,0,1,4.14,10.85c.28,2.4.36,4.87.45,7.48a78.42,78.42,0,0,0,.79,10.07l.28,1.59L10.15,47.21Zm12.44-15.3c-.08-2.54-.17-4.93-.43-7.18-.46-4-1.45-6.68-3.31-8.92s-4.8-4.23-7.66-3.28a7,7,0,0,0-4.2,4.26c-3,8,3.55,22.78,5.75,27.33l10.45-3.25C22.08,36.51,22,33.49,21.87,30.55ZM11.52,52.16l-.65-1.91L27.2,45.69l.56,1.7a11,11,0,0,1,.32,1.12C29.22,53.62,29.3,62,22.87,63.62a5.43,5.43,0,0,1-.68.13C15.94,64.5,12,53.46,11.52,52.16Zm4.23.69C17.37,56.61,20,60.55,22,60c3.47-.88,3.15-6.45,2.72-9.39Z"/></g></svg>