<svg xmlns="http://www.w3.org/2000/svg" viewBox="0 0 64 64"><title>temperature</title><g id="temperature"><path d="M32.06,42.52a6.86,6.86,0,1,0,6.86,6.86A6.86,6.86,0,0,0,32.06,42.52Zm0,10.16a3.3,3.3,0,1,1,3.31-3.3A3.3,3.3,0,0,1,32.06,52.68Zm7.06-15.77V7.59A7.05,7.05,0,0,0,25,7H20.93v3.46H25v5.2H20.93V19.1H25v5.19H20.93v3.46H25V33H20.93v3.46H25v.42a14.24,14.24,0,1,0,14.11.08ZM32,59.31a10.08,10.08,0,0,1-4.95-18.86l2.11-1.2V7.59a2.9,2.9,0,1,1,5.8,0V39.3L37,40.5a10.08,10.08,0,0,1-5,18.81Z"/></g></svg>