<svg xmlns="http://www.w3.org/2000/svg" viewBox="0 0 64 64"><title>timestamp</title><g id="timestamp"><path d="M60.32,3.78H48.07V1.66A1.44,1.44,0,0,0,46.63.22h-.82a1.44,1.44,0,0,0-1.45,1.44V3.78H34V1.66A1.44,1.44,0,0,0,32.5.22h-.82a1.43,1.43,0,0,0-1.44,1.44V3.78H19.56V1.66A1.43,1.43,0,0,0,18.12.22H17.3a1.44,1.44,0,0,0-1.45,1.44V3.78H3.68A2.45,2.45,0,0,0,1.23,6.23V48a2.45,2.45,0,0,0,2.45,2.45H14.85a17.82,17.82,0,0,0,34.48,0h11A2.45,2.45,0,0,0,62.77,48V6.23A2.45,2.45,0,0,0,60.32,3.78ZM32.09,60.35a14.42,14.42,0,0,1-13.65-9.87H32.51L35.06,53a1.82,1.82,0,0,0,2.59-2.55h8.09A14.41,14.41,0,0,1,32.09,60.35ZM17.71,46a14.39,14.39,0,1,1,28.77,0c0,.13,0,.26,0,.39H33.93V37.08a1.82,1.82,0,0,0-3.64,0v9.28H17.73C17.73,46.23,17.71,46.1,17.71,46Zm40.94.39H49.9c0-.13,0-.26,0-.39a17.82,17.82,0,1,0-35.63,0c0,.13,0,.26,0,.39H5.35V19.3h53.3Zm0-31.07H5.35V7.9h10.5V9.53A1.45,1.45,0,0,0,17.3,11h.82a1.44,1.44,0,0,0,1.44-1.45V7.9H30.24V9.53A1.44,1.44,0,0,0,31.68,11h.82A1.45,1.45,0,0,0,34,9.53V7.9H44.36V9.53A1.45,1.45,0,0,0,45.81,11h.82a1.45,1.45,0,0,0,1.44-1.45V7.9H58.65Z"/></g></svg>