<svg xmlns="http://www.w3.org/2000/svg" viewBox="0 0 64 64"><title>tools</title><g id="Layer_46" data-name="Layer 46"><path d="M61.69,59.78,60,61.48a3.46,3.46,0,0,1-4.89,0L18.17,24.56l-7.6,7.59a2.46,2.46,0,0,1-3.48,0l-6-6.49a2.46,2.46,0,0,1,0-3.48l7.47-7.47a4,4,0,0,1,.63-4.78l1-1a4,4,0,0,1,4.79-.63l4.93-4.92L31.29.89a.83.83,0,0,1,1,1L29.64,13.08,24.76,18,61.69,54.89A3.46,3.46,0,0,1,61.69,59.78Zm-25.29-35,5.82,5.82,10-10a9.52,9.52,0,0,0,2,.22A9.4,9.4,0,0,0,62.57,7.08l-4.3,7.64H51.91L49.57,9l3.78-6.91a9.39,9.39,0,0,0-7.6,13.38Zm-16.32,28a9,9,0,0,1,.23,1.95,8.4,8.4,0,1,1-8.4-8.41,8.5,8.5,0,0,1,2.58.41L25,36.19,30.85,42Zm-3,.8-3.56-3.86L8.35,50.87l-1.56,5,3.55,3.86,5.12-1.14Z"/></g></svg>