<svg xmlns="http://www.w3.org/2000/svg" viewBox="0 0 64 64"><title>voc</title><g id="Слой_28" data-name="Слой 28"><path d="M46.06,51C65.41,31.66,63.18.77,63.18.77S32.37-1.54,13,17.89a23.4,23.4,0,0,0-1.07,32L.38,61.35l2.38,2.38L14.28,52.22A23.41,23.41,0,0,0,46.06,51ZM23.85,37.87V13.69a55.56,55.56,0,0,1,8.64-4.36v19.9Zm11-6.22H54.53a55.76,55.76,0,0,1-4.39,8.64H26.21ZM59.78,4.17a80,80,0,0,1-4,24.1H38.23L50.36,16.14,48,13.75,35.87,25.86V8.09A78.84,78.84,0,0,1,59.78,4.17ZM15.41,20.34A43.79,43.79,0,0,1,20.47,16V41.25l-6.13,6.13A20,20,0,0,1,15.41,20.34Zm1.33,29.42,6.09-6.09h25a44.63,44.63,0,0,1-4.21,4.87A20,20,0,0,1,16.74,49.76Z"/></g></svg>